<svg id="Layer_1" data-name="Layer 1" xmlns="http://www.w3.org/2000/svg" viewBox="0 0 512 512"><defs><style>.cls-1{fill:#24292f;}</style></defs><path class="cls-1" d="M436.2,436.3H360.4V317.5c0-28.3-.6-64.8-39.5-64.8-39.5,0-45.6,30.8-45.6,62.7V436.3H199.5V192h72.8v33.3h1c10.2-19.2,34.9-39.5,71.9-39.5,76.8,0,91,50.6,91,116.4V436.3ZM113.8,158.6a44.05,44.05,0,1,1,44-44.1A44,44,0,0,1,113.8,158.6Zm38.1,277.7h-76V192h76ZM474.1,0H37.8C16.9,0,0,16.5,0,36.9V475.1C0,495.5,16.9,512,37.8,512H474.1c20.9,0,37.9-16.5,37.9-36.9V36.9C512,16.5,494.9,0,474.1,0Z"/></svg>