<svg xmlns="http://www.w3.org/2000/svg" xmlns:xlink="http://www.w3.org/1999/xlink" viewBox="0 0 1128.38 546.46"><defs><style>.a,.d,.f{fill:none;}.b{clip-path:url(#a);}.c{fill:#d60a64;}.d,.e,.f{stroke:#000;stroke-miterlimit:10;}.d{stroke-width:35.86px;}.e{stroke-width:31.03px;}.f{stroke-width:13.32px;}</style><clipPath id="a"><rect class="a" x="468.9" y="196.42" width="228.62" height="89.35"/></clipPath></defs><path d="M0,408.16l114.38-333H220.14l114.38,333H231l-12.14-44.09H115.26l-12.59,44.09Zm134.25-114h65.58L167.37,178.9Z"/><path d="M836.24,408.38l.51-333.26,150.14.24c47,.07,80.52,9.39,100.59,24.25s30.07,39.22,30,73.06q-.06,30.35-12.44,50.31t-38.18,31.62q26.19,5.89,38.08,23.09t12.69,50.46l1.62,46.06a3.7,3.7,0,0,0,.22,1.13q.6,19.77,8.9,20.68l0,12.36-101.58-.16q-2.76-11.91-4.12-20.79a95.6,95.6,0,0,1-1.36-13.82l.06-33q0-25.6-9.52-36.07T978.63,294l-42.81-.07,0,114.45Zm99.71-189,45.79.07q24.07,0,33.24-6.8t9.2-23.91q0-17.53-9.12-24.39t-35.76-6.91l-43.24-.07Z"/><g class="b"><path d="M654.45,196.42h33.06c2.28.06,4.57.1,6.85.19.39,0,1,0,1.14.29a5.85,5.85,0,0,1,1.57,3.35c0,1.14.17,2.27.18,3.41,0,7.06.06,14.12,0,21.18a7.07,7.07,0,0,1-.68,2.95,101.43,101.43,0,0,0-5.83,17.13c-1.14,4.23-2.3,8.46-3.79,12.57a42.74,42.74,0,0,1-7.58,13A35.42,35.42,0,0,1,669,279.12a42,42,0,0,1-8.93,3.72A72.87,72.87,0,0,1,647.76,285a65.17,65.17,0,0,1-18.39-.59c-3.43-.66-6.87-1.28-10.28-2a30.83,30.83,0,0,1-13.79-7,52.25,52.25,0,0,1-4.57-4.48,37.21,37.21,0,0,1-6.11-9.13,90.65,90.65,0,0,1-3.85-9c-1.31-3.87-2.18-7.87-3.38-11.77a13.13,13.13,0,0,0-3.06-5.84c-.82-.8-1.37-.81-2.17,0-2.14,2.14-3,4.89-3.73,7.59-1.28,4.76-2.24,9.61-4.31,14.13a80.18,80.18,0,0,1-4.88,9.32,55.67,55.67,0,0,1-5.17,6.27,30.83,30.83,0,0,1-8.09,6.58,40.36,40.36,0,0,1-10.22,3.9,69.9,69.9,0,0,1-10.23,1.85,77.61,77.61,0,0,1-20.48-.32c-3.49-.6-7-.82-10.35-2.21-2.56-1.08-5.16-2.1-7.68-3.26a16,16,0,0,1-3.15-2,44.34,44.34,0,0,1-8.83-8.85A42.5,42.5,0,0,1,480,259c-2.43-5.93-3.74-12.16-5.48-18.28-1.09-3.8-2.61-7.5-3.89-11.26a15.52,15.52,0,0,1-1.21-4.41c-.17-7-.16-14-.15-21.06a36,36,0,0,1,.39-4.5c.25-2,1.14-2.71,3.27-2.81l3.7-.21h34a4,4,0,0,0,.68.11c9.84.07,19.68.25,29.48,1.21,4.76.46,9.57.5,14.23,1.75,3.08.82,6.19,1.49,9.27,2.31,1.8.49,3.55,1.15,5.35,1.68,3.24,1,6.48,1.91,9.73,2.8a12.15,12.15,0,0,0,6.55.26c4-1.12,7.92-2.32,11.87-3.5,2.27-.68,4.52-1.46,6.82-2a66.14,66.14,0,0,1,8.43-1.88c6.64-.8,13.3-1.53,20-2s13.25-.41,19.88-.6C653.38,196.54,653.92,196.47,654.45,196.42ZM690,204.78c-5.63-.15-11-.39-16.32-.4-13.6,0-27.21.1-40.79,1.1-6.74.49-13.54.43-20.17,2-2.72.64-5.44,1.29-8.13,2-2.1.58-4.14,1.35-6.23,2-2.91.86-5.8,1.75-8.75,2.46-2.8.68-5.62,1.41-8.59.87A95.55,95.55,0,0,1,567,211c-2.17-.75-4.36-1.44-6.59-2a63.5,63.5,0,0,0-8.79-1.91c-7.73-.82-15.48-1.43-23.24-2-3.55-.26-7.13-.33-10.7-.35q-19-.08-37.93-.06c-1,0-2.06.12-3.1.19a5.31,5.31,0,0,0-.06.53c0,5.37,0,10.74.09,16.1a11,11,0,0,0,.87,4.29c2.82,6.16,4.36,12.67,6,19.14,1.59,6.17,3.33,12.25,7.06,17.68a28.25,28.25,0,0,0,9.12,8.65,39.57,39.57,0,0,0,8.43,3.69,57.75,57.75,0,0,0,10.55,2,63.74,63.74,0,0,0,15.85-.32c3.92-.61,7.87-.84,11.68-2.13a34.51,34.51,0,0,0,8.5-4,30.41,30.41,0,0,0,7.78-8,53.27,53.27,0,0,0,7.55-17.61c.72-2.85,1.5-5.69,2.42-8.48a18.68,18.68,0,0,1,4.89-7.48c1.84-1.78,5.28-3.27,7.9-2.19a13.51,13.51,0,0,1,2.87,1.57,13.82,13.82,0,0,1,2.78,2.61,27.23,27.23,0,0,1,4.5,10.15,88.92,88.92,0,0,0,5.12,15.73,35.19,35.19,0,0,0,12.3,14.46,24.1,24.1,0,0,0,8.77,3.75,111.78,111.78,0,0,0,13.15,2,63.36,63.36,0,0,0,15.62-.37,45.8,45.8,0,0,0,14-4.1,31.64,31.64,0,0,0,8.33-6.12,27,27,0,0,0,6.1-9.12c1.74-4.61,3.13-9.35,4.47-14.08,1.49-5.27,2.65-10.63,4.88-15.69a12.2,12.2,0,0,0,1.35-4.07C689.82,217.23,689.87,211.1,690,204.78Z"/><path class="c" d="M690,204.78c-.14,6.32-.19,12.45-.46,18.57a12.2,12.2,0,0,1-1.35,4.07c-2.23,5.06-3.39,10.42-4.88,15.69-1.34,4.73-2.73,9.47-4.47,14.08a27,27,0,0,1-6.1,9.12,31.64,31.64,0,0,1-8.33,6.12,45.8,45.8,0,0,1-14,4.1,63.36,63.36,0,0,1-15.62.37,111.78,111.78,0,0,1-13.15-2,24.1,24.1,0,0,1-8.77-3.75,35.19,35.19,0,0,1-12.3-14.46A88.92,88.92,0,0,1,595.43,241a27.23,27.23,0,0,0-4.5-10.15,13.82,13.82,0,0,0-2.78-2.61,13.51,13.51,0,0,0-2.87-1.57c-2.62-1.08-6.06.41-7.9,2.19a18.68,18.68,0,0,0-4.89,7.48c-.92,2.79-1.7,5.63-2.42,8.48a53.27,53.27,0,0,1-7.55,17.61,30.41,30.41,0,0,1-7.78,8,34.51,34.51,0,0,1-8.5,4c-3.81,1.29-7.76,1.52-11.68,2.13a63.74,63.74,0,0,1-15.85.32,57.75,57.75,0,0,1-10.55-2,39.57,39.57,0,0,1-8.43-3.69,28.25,28.25,0,0,1-9.12-8.65c-3.73-5.43-5.47-11.51-7.06-17.68-1.68-6.47-3.22-13-6-19.14a11,11,0,0,1-.87-4.29c-.12-5.36-.08-10.73-.09-16.1,0-.14,0-.28.06-.54,1-.06,2.07-.18,3.1-.18q19,0,37.93.06c3.57,0,7.15.09,10.7.35,7.76.57,15.51,1.18,23.24,2a63.5,63.5,0,0,1,8.79,1.91c2.23.57,4.42,1.26,6.59,2A95.55,95.55,0,0,0,581,214.79c3,.54,5.79-.19,8.59-.87,3-.7,5.84-1.6,8.75-2.46,2.09-.61,4.13-1.38,6.23-2,2.69-.74,5.41-1.39,8.13-2,6.63-1.56,13.43-1.5,20.17-2,13.58-1,27.19-1.11,40.79-1.1C679,204.39,684.38,204.63,690,204.78ZM487.06,230.24a60.55,60.55,0,0,0,2.75,18.44,35.25,35.25,0,0,0,10.9,16.48,28.23,28.23,0,0,0,12.1,6.07,117.06,117.06,0,0,0,12.86,1.63,24.44,24.44,0,0,0,3.79-.28c4.82-.29,9.65-.53,14.23-2.24,1.67-.63,3.35-1.22,5-1.88,4.28-1.71,7.46-4.66,10.27-8.07a28.23,28.23,0,0,0,5-9.33,83.14,83.14,0,0,0,3.53-18.6,21,21,0,0,0-1-9.36,21.37,21.37,0,0,0-3.64-5.82,17.39,17.39,0,0,0-9.73-6.41A68.26,68.26,0,0,0,540,209.1c-11.79-.29-23.59-.23-35.39-.23a53.35,53.35,0,0,0-7.13.54c-4.93.66-7.33,3.89-8.74,8.05S487.17,226,487.06,230.24Zm160.35-21.32v-.3c-8,.26-16.09.49-24.14.81-2.32.1-4.62.44-6.93.72a18.45,18.45,0,0,0-8,2.81,21.24,21.24,0,0,0-8,9.37,17.13,17.13,0,0,0-1.72,9.1,117.2,117.2,0,0,0,3.69,19.25,28,28,0,0,0,12.76,16.44,29.83,29.83,0,0,0,9.84,3.91c5,.92,10,1.32,15.05,1.83a24.59,24.59,0,0,0,3.8-.29c4.32-.26,8.6-.61,12.67-2.24a37.29,37.29,0,0,0,7.33-3.83,31.45,31.45,0,0,0,8.07-8.16,39.1,39.1,0,0,0,5.86-13.42,61.77,61.77,0,0,0,1.21-22c-.53-4.42-1.49-8.76-5.5-11.68-1.6-1.17-3.24-2.35-5.51-2.33C661.06,209,654.24,208.92,647.41,208.92Z"/><path d="M487.06,230.24c.11-4.26.23-8.6,1.64-12.78s3.81-7.39,8.74-8.05a53.35,53.35,0,0,1,7.13-.54c11.8,0,23.6-.06,35.39.23a68.26,68.26,0,0,1,13.18,1.77,17.39,17.39,0,0,1,9.73,6.41,21.37,21.37,0,0,1,3.64,5.82,21,21,0,0,1,1,9.36,83.14,83.14,0,0,1-3.53,18.6,28.23,28.23,0,0,1-5,9.33c-2.81,3.41-6,6.36-10.27,8.07-1.66.66-3.34,1.25-5,1.88-4.58,1.71-9.41,2-14.23,2.24a24.44,24.44,0,0,1-3.79.28,117.06,117.06,0,0,1-12.86-1.63,28.23,28.23,0,0,1-12.1-6.07,35.25,35.25,0,0,1-10.9-16.48A60.55,60.55,0,0,1,487.06,230.24Z"/><path d="M647.41,208.92c6.83,0,13.65,0,20.48,0,2.27,0,3.91,1.16,5.51,2.33,4,2.92,5,7.26,5.5,11.68a61.77,61.77,0,0,1-1.21,22,39.1,39.1,0,0,1-5.86,13.42,31.45,31.45,0,0,1-8.07,8.16,37.29,37.29,0,0,1-7.33,3.83c-4.07,1.63-8.35,2-12.67,2.24a24.59,24.59,0,0,1-3.8.29c-5-.51-10.09-.91-15.05-1.83a29.83,29.83,0,0,1-9.84-3.91,28,28,0,0,1-12.76-16.44,117.2,117.2,0,0,1-3.69-19.25,17.13,17.13,0,0,1,1.72-9.1,21.24,21.24,0,0,1,8-9.37,18.45,18.45,0,0,1,8-2.81c2.31-.28,4.61-.62,6.93-.72,8-.32,16.09-.55,24.14-.81Z"/></g><path d="M617.1,530.3s0-21.07-6.6-14c-6.6-14.05-6.6-14.05-6.6,7-6.6-7-13.2-21.07-19.79,0-6.6-28.09-12.73,2.11-19.33,23.18-6.6-21.07-13.67-58.3-20.27-23.18-13.2-35.12-15.16,19.38-21.21,17.79-.94-25.66-20.76-22.4-27.64-26.92,1.77-15.6-14.07-33.94-8.53-38.28,11.19-8.77-15.21,5.27-9.94-13.69,4.32-15.55-9.06-13.13-8.72-20.78.11-2.65.11.1.11-8,0,0-9.85-36.5,3.34-36.5,6.6-21.07-2.82-23.74-6.59-30.43,13.19-11.71,0-11.12,0-14.83,6.59-10.92,0-10.92-13.2-25,6.6-14,13.2-16.19,13.2-21.07V256.41c0-19,9.69-43.09,19.79,0C499.62,318.24,529.9,358,555.56,358h55.3c24.07,0,55.4-26.79,68.15-89.2C689.33,218.24,705,240.3,705,261l-2.06,37.51v21.07c0,3.17,26.39,35.11,6.59,21.07-11.1-7.88-6.59,7-9.4,25-1.32,8.53,5.1,17.27,9.4,24.14,8.85,14.12-13.19,7-13.19,7,0,4.34,6.6,14,1.86,25.36-6.44,15.36,2.46,33.83-1.14,27.47-2.87-5.07-13.92,3.35-7.32,10.37,2.45,2.61-11.75,19.18-13.2,21.07-3.17,4.14,13.2,21.07,13.2,35.12-13.2-14.05-19.8-17-19.8-14.05,0,14.05,0,0-7,18.85-12.78-18.85-19.37,19.26-19.37,2.22C643.5,516.26,623.7,509.23,617.1,530.3Z"/><path class="d" d="M588.3,20.86,786,382.78a5.63,5.63,0,0,1-4.94,8.33H385.72a5.63,5.63,0,0,1-4.94-8.33L578.42,20.86A5.63,5.63,0,0,1,588.3,20.86Z"/><path class="e" d="M552.92,80.49l-58.87,99.87c-1.36.91,21.26-27.93,46.5-38a112.92,112.92,0,0,1,81.61-.76c27.08,10.27,62.28,46.69,51.2,38.75L614.5,80.49C601,57.61,566.41,57.61,552.92,80.49Z"/><polyline class="f" points="588.75 279.59 588.75 279.59 588.75 279.59"/><rect x="573.99" y="234.11" width="18.43" height="59.24" rx="1.6"/><path d="M582.73,298.76c-6.46,0-23.75,8-39.43,17.67s-29.75,21.07-29.75,27.8c0,13.51,9.05,24.51,20.18,24.51h98A18.49,18.49,0,0,0,646,361.57a27.31,27.31,0,0,0,5.94-17.34C651.91,330.76,595.7,298.76,582.73,298.76ZM604.29,358H561.17a9.16,9.16,0,0,1-8.88-9.41c0-2.63,6.17-7,13.09-10.73S579.85,331,582.73,331c5.71,0,30.44,12.31,30.44,17.51A9.16,9.16,0,0,1,604.29,358Z"/></svg>