<svg id="Layer_1" data-name="Layer 1" xmlns="http://www.w3.org/2000/svg" viewBox="0 0 110.86 81.17"><defs><style>.cls-1{fill:#231f20;}.cls-2{fill:#010101;}</style></defs><rect class="cls-1" x="6.94" y="8.35" width="3.38" height="3.24"/><rect class="cls-1" x="13.71" y="8.35" width="3.61" height="3.24"/><rect class="cls-1" x="20.7" y="8.35" width="3.61" height="3.24"/><path class="cls-2" d="M0,0V81.19H110.86V0ZM3.38,78V3.25H107.47v5.1H27.69v3.24h79.78V78Z"/><polygon class="cls-2" points="79.69 43.05 38.13 43.05 38.13 16.59 90.05 16.59 90.05 33.14 86.67 33.14 86.67 19.83 41.52 19.83 41.52 39.81 79.69 39.81 79.69 43.05"/><rect class="cls-1" x="38.06" y="48.04" width="39.91" height="3.24"/><rect class="cls-2" x="38.06" y="50.73" width="5.19" height="3.24"/><rect class="cls-2" x="38.06" y="55.69" width="17.36" height="3.24"/><rect class="cls-1" x="58.81" y="55.69" width="8.79" height="3.24"/><rect class="cls-2" x="70.98" y="55.69" width="17.36" height="3.24"/><rect class="cls-1" x="38.06" y="60.65" width="25.93" height="3.24"/><rect class="cls-2" x="38.06" y="65.61" width="38.11" height="3.24"/><path class="cls-2" d="M8.66,16.59V72.9H32.85V16.59ZM29.47,69.66H12.05V42.81a12.46,12.46,0,0,0,17.42,0V69.66ZM12.05,34.8a8.54,8.54,0,0,1,8.71-8.34,8.54,8.54,0,0,1,8.71,8.34,8.54,8.54,0,0,1-8.71,8.33A8.53,8.53,0,0,1,12.05,34.8Zm8.71-11.57a12.31,12.31,0,0,0-8.71,3.55v-7H29.47v7A12.35,12.35,0,0,0,20.76,23.23Z"/><path class="cls-2" d="M91.88,54.16a3.52,3.52,0,0,1-3-1.62l-8.59-13.7a3.62,3.62,0,0,1,.59-4.57,4.06,4.06,0,0,1,4.78-.56L100,41.93a3.27,3.27,0,0,1,0,5.74l-.26.15-2.33.42a2.34,2.34,0,0,0-1.9,1.81L95,52.29l-.15.25A3.53,3.53,0,0,1,91.88,54.16ZM83.65,36.41a.55.55,0,0,0-.38.15.5.5,0,0,0-.08.62l8.59,13.69a.11.11,0,0,0,.09.06l.29-1.48a5.6,5.6,0,0,1,4.59-4.39l1.54-.28a.09.09,0,0,0-.06-.08L83.92,36.48A.64.64,0,0,0,83.65,36.41Z"/><rect class="cls-1" x="15.51" y="62.92" width="10.37" height="3.24"/><rect class="cls-1" x="15.51" y="49.77" width="10.37" height="3.24"/><rect class="cls-1" x="15.51" y="52.45" width="10.37" height="3.24"/></svg>