<svg id="Layer_1" data-name="Layer 1" xmlns="http://www.w3.org/2000/svg" viewBox="0 0 111.65 81.25"><defs><style>.cls-1{fill:#fff;}.cls-2{fill:#057fa9;}.cls-3{fill:#8cd1c8;}.cls-4{fill:#e6e6e5;}.cls-5{fill:#fbb03c;}.cls-6{fill:#f15b27;}.cls-7{fill:#010101;}</style></defs><rect class="cls-1" x="2.19" y="1.99" width="107.48" height="77.94"/><polyline class="cls-2" points="40.33 41.79 40.33 18.57 88.87 18.57 88.87 41.79 40.33 41.79"/><path class="cls-3" d="M97.57,47a4,4,0,0,0-3.24,3.1l-.39,2a1.84,1.84,0,0,1-3.1,0L82.25,38.37a2.06,2.06,0,0,1,.33-2.59h0a2.31,2.31,0,0,1,2.72-.32l14.31,8.21a1.7,1.7,0,0,1,0,3Z"/><rect class="cls-4" x="2.19" y="1.99" width="17.33" height="77.94"/><rect class="cls-5" x="10.86" y="18.57" width="20.8" height="53.07"/><rect class="cls-2" x="2.19" y="1.99" width="107.48" height="8.29"/><ellipse class="cls-3" cx="21.26" cy="35.16" rx="10.4" ry="9.95"/><rect class="cls-6" x="7.45" y="8.71" width="3.38" height="3.24"/><rect class="cls-5" x="14.22" y="8.71" width="3.61" height="3.24"/><rect class="cls-6" x="21.2" y="8.71" width="3.61" height="3.24"/><path class="cls-7" d="M.5.37V81.55H111.36V.37ZM3.88,78.31V3.61H108v5.1H28.2V12H108V78.31Z"/><polygon class="cls-7" points="80.2 43.41 38.64 43.41 38.64 16.95 90.56 16.95 90.56 33.5 87.18 33.5 87.18 20.19 42.02 20.19 42.02 40.17 80.2 40.17 80.2 43.41"/><rect class="cls-6" x="38.57" y="48.4" width="39.91" height="3.24"/><rect class="cls-7" x="38.57" y="51.09" width="5.19" height="3.24"/><rect class="cls-7" x="38.57" y="56.05" width="17.36" height="3.24"/><rect class="cls-5" x="59.31" y="56.05" width="8.79" height="3.24"/><rect class="cls-7" x="71.49" y="56.05" width="17.36" height="3.24"/><rect class="cls-3" x="38.57" y="61.01" width="25.93" height="3.24"/><rect class="cls-7" x="38.57" y="65.97" width="38.11" height="3.24"/><path class="cls-7" d="M9.17,17V73.26H33.35V17ZM30,70H12.55V43.17a12.46,12.46,0,0,0,17.42,0V70ZM12.55,35.16a8.54,8.54,0,0,1,8.71-8.34A8.54,8.54,0,0,1,30,35.16a8.54,8.54,0,0,1-8.71,8.33A8.54,8.54,0,0,1,12.55,35.16Zm8.71-11.57a12.31,12.31,0,0,0-8.71,3.55V20.19H30v7A12.31,12.31,0,0,0,21.26,23.59Z"/><path class="cls-7" d="M92.39,54.52a3.5,3.5,0,0,1-3-1.62L80.8,39.2a3.62,3.62,0,0,1,.59-4.57,4.06,4.06,0,0,1,4.78-.56l14.31,8.22a3.27,3.27,0,0,1,0,5.74l-.26.15-2.34.42A2.33,2.33,0,0,0,96,50.41l-.44,2.24-.16.25A3.5,3.5,0,0,1,92.39,54.52ZM84.15,36.77a.53.53,0,0,0-.37.15.5.5,0,0,0-.08.62l8.59,13.69a.11.11,0,0,0,.09.06l.29-1.48a5.6,5.6,0,0,1,4.59-4.39l1.54-.28a.11.11,0,0,0-.06-.08L84.43,36.85A.57.57,0,0,0,84.15,36.77Z"/><rect class="cls-1" x="16.02" y="63.29" width="10.37" height="3.24"/><rect class="cls-1" x="16.02" y="50.13" width="10.37" height="3.24"/><rect class="cls-6" x="16.02" y="52.81" width="10.37" height="3.24"/></svg>