<svg id="Layer_1" data-name="Layer 1" xmlns="http://www.w3.org/2000/svg" xmlns:xlink="http://www.w3.org/1999/xlink" viewBox="0 0 250 250"><defs><style>.cls-1{fill:url(#linear-gradient);}.cls-2{fill:url(#linear-gradient-2);}.cls-3{fill:url(#linear-gradient-3);}.cls-11,.cls-12,.cls-4,.cls-6{fill:#231f20;}.cls-10,.cls-11,.cls-12,.cls-4,.cls-7,.cls-8,.cls-9{stroke:#231f20;stroke-miterlimit:10;}.cls-11,.cls-12,.cls-4,.cls-7,.cls-8{stroke-linecap:round;}.cls-4{stroke-width:1.18px;}.cls-5{fill:#af205c;}.cls-7,.cls-8,.cls-9{stroke-width:3px;}.cls-7{fill:url(#linear-gradient-4);}.cls-8{fill:url(#linear-gradient-5);}.cls-9{fill:url(#linear-gradient-6);}.cls-10{stroke-width:3.54px;fill:url(#linear-gradient-7);}.cls-11{stroke-width:0.24px;}.cls-12{stroke-width:0.12px;}</style><linearGradient id="linear-gradient" x1="7.84" y1="77.81" x2="21.17" y2="77.81" gradientUnits="userSpaceOnUse"><stop offset="0.2" stop-color="#b1b3b6"/><stop offset="0.2" stop-color="#aaabad"/><stop offset="0.2" stop-color="#a0a1a2"/><stop offset="0.2" stop-color="#9b9b9b"/><stop offset="0.2" stop-color="#999"/></linearGradient><linearGradient id="linear-gradient-2" x1="32.9" y1="81.47" x2="32.9" y2="74.15" gradientUnits="userSpaceOnUse"><stop offset="0.39" stop-color="#cf1f61"/><stop offset="0.59" stop-color="#cf1e61"/></linearGradient><linearGradient id="linear-gradient-3" x1="38.92" y1="77.81" x2="75.36" y2="77.81" gradientUnits="userSpaceOnUse"><stop offset="1" stop-color="#231f20"/><stop offset="1" stop-color="#cf1f61"/></linearGradient><linearGradient id="linear-gradient-4" x1="102.59" y1="48.99" x2="146.44" y2="48.99" gradientUnits="userSpaceOnUse"><stop offset="0.24" stop-color="#7f5698"/><stop offset="0.24" stop-color="#7b5399"/><stop offset="0.25" stop-color="#744f9b"/><stop offset="0.26" stop-color="#724e9c"/></linearGradient><linearGradient id="linear-gradient-5" x1="109.18" y1="70.87" x2="140.19" y2="39.87" gradientUnits="userSpaceOnUse"><stop offset="0" stop-color="#fff33b"/><stop offset="0.04" stop-color="#fee72e"/><stop offset="0.12" stop-color="#fed51b"/><stop offset="0.2" stop-color="#fdca10"/><stop offset="0.28" stop-color="#fdc70c"/><stop offset="0.53" stop-color="#fcbe1b"/><stop offset="0.53" stop-color="#fab522"/><stop offset="0.53" stop-color="#f7a42f"/><stop offset="0.53" stop-color="#f59938"/><stop offset="0.54" stop-color="#f3923e"/><stop offset="0.55" stop-color="#f3903f"/><stop offset="0.89" stop-color="#ed683c"/><stop offset="1" stop-color="#e93e3a"/></linearGradient><linearGradient id="linear-gradient-6" x1="102.59" y1="139.57" x2="146.44" y2="139.57" gradientUnits="userSpaceOnUse"><stop offset="0.24" stop-color="#7f5698"/><stop offset="0.24" stop-color="#7b539a"/><stop offset="0.25" stop-color="#744f9d"/><stop offset="0.26" stop-color="#724e9e"/></linearGradient><linearGradient id="linear-gradient-7" x1="61.76" y1="78.46" x2="188.24" y2="78.46" gradientUnits="userSpaceOnUse"><stop offset="0.41" stop-color="#cf1f61"/><stop offset="0.41" stop-color="#c01f5d"/><stop offset="0.41" stop-color="#b5205a"/><stop offset="0.41" stop-color="#ae2058"/><stop offset="0.42" stop-color="#ac2058"/></linearGradient></defs><rect class="cls-1" x="7.84" y="76.48" width="13.33" height="2.66"/><path class="cls-2" d="M20.16,74.15H45a2.43,2.43,0,0,1,2.43,2.43V79A2.43,2.43,0,0,1,45,81.47H20.75A2.43,2.43,0,0,1,18.32,79V76A1.84,1.84,0,0,1,20.16,74.15Z"/><rect class="cls-3" x="38.92" y="72.68" width="36.44" height="10.26" rx="2.98"/><rect class="cls-4" x="186.52" y="59.08" width="5.92" height="39.02" rx="2.42" transform="translate(268.07 -110.89) rotate(90)"/><rect class="cls-5" x="196.35" y="76.53" width="18.99" height="4.13" transform="translate(284.44 -127.26) rotate(90)"/><polygon class="cls-5" points="220.89 66.74 219.18 62.3 203.8 69.04 205.51 73.48 220.89 66.74"/><polygon class="cls-5" points="218.86 95.78 220.8 91.45 205.8 83.78 203.86 88.11 218.86 95.78"/><path class="cls-5" d="M227.89,70.73l1-2.14a1.24,1.24,0,0,0-.53-1.62l-9.14-4.67-1.94,4.33,9.14,4.67A1.1,1.1,0,0,0,227.89,70.73Z"/><path class="cls-6" d="M206.58,80.48l1.17-1.62L207,77l-1.9-.27L204,78.32l.73,1.89Zm-.28-.73a1.15,1.15,0,0,1-1.53-.68,1.29,1.29,0,0,1,.63-1.64,1.16,1.16,0,0,1,1.54.68A1.29,1.29,0,0,1,206.3,79.75Z"/><ellipse class="cls-6" cx="205.85" cy="78.59" rx="0.91" ry="0.97"/><path class="cls-5" d="M229,90.38l-.7-2.07a1.21,1.21,0,0,0-1.57-.78l-9.44,3.66,1.53,4.52,9.45-3.66A1.33,1.33,0,0,0,229,90.38Z"/><path class="cls-7" d="M102.65,69.51c0-22.67-2.25-41,21.86-41,24.32,0,21.87,18.37,21.87,41"/><path class="cls-8" d="M109.05,70.74a7.09,7.09,0,0,1-.65-3V43.59a7.18,7.18,0,0,1,7.16-7.16H133.8A7.18,7.18,0,0,1,141,43.59V67.76a7.05,7.05,0,0,1-.68,3"/><rect class="cls-9" x="102.59" y="69.7" width="43.85" height="139.72" rx="4.55"/><rect class="cls-10" x="61.76" y="63.59" width="126.48" height="29.76" rx="4.21"/><path class="cls-11" d="M76.82,72.68H70.14L66.8,78.46l3.34,5.79h6.68l3.34-5.79Zm-3.34,9.88a4.1,4.1,0,1,1,4.1-4.1A4.1,4.1,0,0,1,73.48,82.56Z"/><circle class="cls-11" cx="73.48" cy="78.46" r="3.17"/><path class="cls-11" d="M179.84,72.68h-6.68l-3.34,5.78,3.34,5.79h6.68l3.34-5.79Zm-3.34,9.88a4.1,4.1,0,1,1,4.1-4.1A4.1,4.1,0,0,1,176.5,82.56Z"/><circle class="cls-11" cx="176.5" cy="78.46" r="3.17"/><path class="cls-12" d="M108.48,84.25h-3.34l-1.67,2.89,1.67,2.9h3.34l1.67-2.9Zm-1.67,4.94a2,2,0,1,1,2-2A2,2,0,0,1,106.81,89.19Z"/><circle class="cls-12" cx="106.81" cy="87.14" r="1.58"/><path class="cls-12" d="M144.77,66.81h-3.34l-1.67,2.89,1.67,2.9h3.34l1.67-2.9Zm-1.67,4.94a2,2,0,1,1,2.05-2A2,2,0,0,1,143.1,71.75Z"/><circle class="cls-12" cx="143.1" cy="69.7" r="1.58"/><path class="cls-12" d="M126.67,75.57h-3.34l-1.67,2.89,1.67,2.9h3.34l1.67-2.9ZM125,80.51a2,2,0,1,1,2-2.05A2,2,0,0,1,125,80.51Z"/><circle class="cls-12" cx="125" cy="78.46" r="1.58"/><path class="cls-12" d="M144.77,84.33h-3.34l-1.67,2.89,1.67,2.9h3.34l1.67-2.9Zm-1.67,4.94a2,2,0,1,1,2.05-2A2,2,0,0,1,143.1,89.27Z"/><circle class="cls-12" cx="143.1" cy="87.22" r="1.58"/><path class="cls-12" d="M108.48,66.81h-3.34l-1.67,2.89,1.67,2.9h3.34l1.67-2.9Zm-1.67,4.94a2,2,0,1,1,2-2A2,2,0,0,1,106.81,71.75Z"/><circle class="cls-12" cx="106.81" cy="69.7" r="1.58"/></svg>