<svg id="Layer_1" data-name="Layer 1" xmlns="http://www.w3.org/2000/svg" viewBox="0 0 250 250"><defs><style>.cls-1,.cls-2,.cls-3,.cls-4,.cls-5,.cls-6{fill:#231f20;stroke:#231f20;stroke-miterlimit:10;}.cls-1{stroke-width:1.21px;}.cls-2{stroke-width:1.23px;}.cls-3{stroke-width:1.35px;}.cls-4{stroke-width:1.61px;}.cls-5{stroke-width:1.43px;}.cls-6{stroke-width:0.82px;}</style></defs><path class="cls-1" d="M145.67,161.79l-12.73.32c-4.78.11-8.73-3.34-8.82-7.72,0,0-1.29-47.81-1.63-63.73,0-1.6,6-4.63,5.83-7.27-.13-2.35-.11-8-.11-8l-.75-49.67c-.09-4.38-2.38-6.88,2.4-7l12.72-.31c4.78-.12,2.47,1.93,2.56,6.31l.83,50.2s.4,5.76.3,8.28c-.12,2.94,6.2,5.19,6.26,6.77.6,16,1.63,63.67,1.63,63.67C154.25,158,150.45,161.68,145.67,161.79Z"/><path class="cls-2" d="M161.81,30c-25.28.73-27.49.85-52.78,1.47l-10.86.27C97,28.45,95.56,26.06,94,26c-1.73,0-1.89,2.79-5,4.84s-6.2,1.59-9.83,1.15a5.17,5.17,0,0,1-3.27-1.36,5,5,0,0,1-1.41-3.42L74.09,9.31a5.07,5.07,0,0,1,1.27-3.49,5.16,5.16,0,0,1,3.21-1.51C82,3.69,86.18,2.93,89.8,5.49c2.68,1.89,3,4.18,4.5,4,1.62-.14,2.74-3.1,3.44-5.7,48.49-1.46,51.42-1.26,58-1.42,2.1,0,13,3.48,13,3.48,5.5,2.95,14.58,8.47,15.13,8.88,12.08,8.76,16.79,15.34,16.8,15.35,9,9,3.4,7.89-5.35,3.58C195.21,33.65,184.87,28.89,161.81,30Z"/><path class="cls-3" d="M174.93,172.4l-11-6.6c-4.14-2.48-5.46-8.36-3-13.13,0,0,1.51-2.2,10.62-19.55.92-1.73,7.12-.39,8.56-3.31,1.28-2.61,4.62-8.67,4.62-8.67l24.65-46.31-5-15.58,28.7-21.79,7.46,4.37-1.65,37.8-14.18,4.09L200.68,129s-3.06,6.44-4.63,9.09c-1.84,3.11,2.38,8.94,1.5,10.67C188.62,166.3,187,168.25,187,168.25,184.45,173,179.07,174.88,174.93,172.4Z"/><path class="cls-4" d="M113.51,152.69,101,161.43c-2.08,1.35-3.06-.6-4-2.21L48,75.46A53,53,0,0,1,36.52,77c-5.25.12-9.73-.26-12.87-5.51-4.2-7-3.87-8.3-2.31-13.13.88-2.73,7.32-8.21,7.32-8.21L35,61.59,49.47,61l7.1-13.76L50.09,36s2.26-1.54,7.42-1.8c3.91-.2,7-.74,11.17,5.71,2.13,3.28,2.72,8.95,1.4,12.77a71.13,71.13,0,0,1-5.64,12.12L114,148.16C115,149.77,115.59,151.33,113.51,152.69Z"/><rect class="cls-5" x="0.48" y="148.84" width="249.02" height="25"/><rect class="cls-5" x="0.22" y="185.53" width="249.02" height="25"/><rect class="cls-5" x="0.22" y="226.3" width="249.02" height="25"/><polygon class="cls-5" points="62.77 98.29 12.98 162.26 0.38 148.81 62.32 82.7 62.77 98.29"/><polygon class="cls-5" points="186.77 98.02 236.95 163.04 249.56 149.59 188.13 84.02 186.77 98.02"/><rect class="cls-6" x="58.02" y="82.8" width="129.35" height="16.04"/></svg>